<svg version="1.1" viewBox="0.0 0.0 600.0 371.0" fill="none" stroke="none" stroke-linecap="square" stroke-miterlimit="10" width="600" height="371" xmlns:xlink="http://www.w3.org/1999/xlink" xmlns="http://www.w3.org/2000/svg"><path fill="#ffffff" fill-opacity="0.0" d="M0 0L600.0 0L600.0 371.0L0 371.0L0 0Z" fill-rule="nonzero"/><path stroke="#333333" stroke-width="1.0" stroke-linecap="butt" d="M61.5 330.5L496.5 330.5" fill-rule="nonzero"/><path stroke="#cccccc" stroke-width="1.0" stroke-linecap="butt" d="M61.5 264.5L496.5 264.5" fill-rule="nonzero"/><path stroke="#cccccc" stroke-width="1.0" stroke-linecap="butt" d="M61.5 197.5L496.5 197.5" fill-rule="nonzero"/><path stroke="#cccccc" stroke-width="1.0" stroke-linecap="butt" d="M61.5 131.5L496.5 131.5" fill-rule="nonzero"/><path stroke="#cccccc" stroke-width="1.0" stroke-linecap="butt" d="M61.5 64.5L496.5 64.5" fill-rule="nonzero"/><clipPath id="id_0"><path d="M61.55 64.916664L496.74777 64.916664L496.74777 330.45L61.55 330.45L61.55 64.916664Z" clip-rule="nonzero"/></clipPath><path stroke="#000000" stroke-width="2.0" stroke-linecap="butt" stroke-opacity="0.0" clip-path="url(#id_0)" d="M384.0 330.0L174.0 330.0L174.0 101.0L384.0 101.0Z" fill-rule="nonzero"/><path fill="#4285f4" clip-path="url(#id_0)" d="M384.0 330.0L174.0 330.0L174.0 101.0L384.0 101.0Z" fill-rule="nonzero"/><path stroke="#000000" stroke-width="2.0" stroke-linecap="butt" stroke-opacity="0.0" clip-path="url(#id_0)" d="M384.0 101.0L174.0 101.0L174.0 67.0C174.0 65.89543 174.89543 65.0 176.0 65.0L382.0 65.0C383.10458 65.0 384.0 65.89543 384.0 67.0Z" fill-rule="nonzero"/><path fill="#cccccc" clip-path="url(#id_0)" d="M384.0 101.0L174.0 101.0L174.0 67.0C174.0 65.89543 174.89543 65.0 176.0 65.0L382.0 65.0C383.10458 65.0 384.0 65.89543 384.0 67.0Z" fill-rule="nonzero"/><path stroke="#4285f4" stroke-width="3.0" stroke-linejoin="round" stroke-linecap="round" d="M268.39062 111.5167Q268.39062 112.157326 268.04688 112.657326Q267.70312 113.157326 267.14062 113.438576Q267.79688 113.719826 268.1875 114.282326Q268.57812 114.8292 268.57812 115.532326Q268.57812 116.626076 267.82812 117.29795Q267.09375 117.9542 265.875 117.9542Q264.64062 117.9542 263.89062 117.29795Q263.15625 116.626076 263.15625 115.532326Q263.15625 114.8292 263.53125 114.282326Q263.90625 113.719826 264.57812 113.438576Q264.01562 113.157326 263.6875 112.657326Q263.35938 112.157326 263.35938 111.5167Q263.35938 110.438576 264.04688 109.813576Q264.73438 109.17295 265.875 109.17295Q267.0 109.17295 267.6875 109.813576Q268.39062 110.438576 268.39062 111.5167ZM267.5 115.501076Q267.5 114.782326 267.04688 114.344826Q266.59375 113.8917 265.85938 113.8917Q265.125 113.8917 264.67188 114.344826Q264.23438 114.782326 264.23438 115.5167Q264.23438 116.23545 264.67188 116.657326Q265.10938 117.063576 265.875 117.063576Q266.625 117.063576 267.0625 116.6417Q267.5 116.219826 267.5 115.501076ZM265.875 110.063576Q265.23438 110.063576 264.82812 110.469826Q264.4375 110.86045 264.4375 111.54795Q264.4375 112.188576 264.82812 112.594826Q265.21875 113.001076 265.85938 113.001076Q266.51562 113.001076 266.90625 112.594826Q267.29688 112.188576 267.29688 111.54795Q267.29688 110.8917 266.89062 110.48545Q266.48438 110.063576 265.875 110.063576ZM274.46875 109.29795L274.46875 110.2042L274.26562 110.2042Q273.0 110.23545 272.25 110.969826Q271.5 111.688576 271.375 113.001076Q272.0625 112.23545 273.21875 112.23545Q274.32812 112.23545 275.0 113.0167Q275.67188 113.79795 275.67188 115.04795Q275.67188 116.36045 274.95312 117.157326Q274.23438 117.9542 273.01562 117.9542Q271.79688 117.9542 271.03125 117.0167Q270.28125 116.063576 270.28125 114.5792L270.28125 114.17295Q270.28125 111.813576 271.28125 110.563576Q272.28125 109.313576 274.26562 109.29795L274.46875 109.29795ZM273.04688 113.1417Q272.48438 113.1417 272.01562 113.469826Q271.54688 113.79795 271.35938 114.313576L271.35938 114.7042Q271.35938 115.7667 271.82812 116.407326Q272.3125 117.04795 273.01562 117.04795Q273.75 117.04795 274.17188 116.5167Q274.59375 115.969826 274.59375 115.094826Q274.59375 114.219826 274.17188 113.688576Q273.75 113.1417 273.04688 113.1417ZM277.34375 117.2667Q277.34375 116.98545 277.5 116.79795Q277.67188 116.61045 278.0 116.61045Q278.34375 116.61045 278.51562 116.79795Q278.6875 116.98545 278.6875 117.2667Q278.6875 117.532326 278.51562 117.719826Q278.34375 117.8917 278.0 117.8917Q277.67188 117.8917 277.5 117.719826Q277.34375 117.532326 277.34375 117.2667ZM284.78125 114.969826L285.96875 114.969826L285.96875 115.844826L284.78125 115.844826L284.78125 117.8292L283.70312 117.8292L283.70312 115.844826L279.8125 115.844826L279.8125 115.2042L283.625 109.29795L284.78125 109.29795L284.78125 114.969826ZM281.04688 114.969826L283.70312 114.969826L283.70312 110.782326L283.5625 111.0167L281.04688 114.969826ZM287.10938 110.938576Q287.10938 110.17295 287.59375 109.67295Q288.09375 109.17295 288.85938 109.17295Q289.64062 109.17295 290.125 109.67295Q290.60938 110.17295 290.60938 110.969826L290.60938 111.3917Q290.60938 112.157326 290.10938 112.657326Q289.625 113.1417 288.875 113.1417Q288.10938 113.1417 287.60938 112.657326Q287.10938 112.157326 287.10938 111.344826L287.10938 110.938576ZM287.92188 111.3917Q287.92188 111.844826 288.17188 112.1417Q288.4375 112.438576 288.875 112.438576Q289.29688 112.438576 289.54688 112.157326Q289.79688 111.86045 289.79688 111.36045L289.79688 110.938576Q289.79688 110.48545 289.54688 110.188576Q289.29688 109.876076 288.85938 109.876076Q288.42188 109.876076 288.17188 110.188576Q287.92188 110.48545 287.92188 110.9542L287.92188 111.3917ZM291.26562 115.73545Q291.26562 114.969826 291.75 114.48545Q292.25 113.98545 293.01562 113.98545Q293.78125 113.98545 294.26562 114.48545Q294.76562 114.969826 294.76562 115.782326L294.76562 116.188576Q294.76562 116.9542 294.28125 117.4542Q293.79688 117.9542 293.03125 117.9542Q292.26562 117.9542 291.76562 117.469826Q291.26562 116.969826 291.26562 116.157326L291.26562 115.73545ZM292.07812 116.188576Q292.07812 116.657326 292.32812 116.9542Q292.59375 117.251076 293.03125 117.251076Q293.45312 117.251076 293.70312 116.969826Q293.95312 116.67295 293.95312 116.17295L293.95312 115.73545Q293.95312 115.2667 293.6875 114.98545Q293.4375 114.688576 293.01562 114.688576Q292.59375 114.688576 292.32812 114.98545Q292.07812 115.2667 292.07812 115.7667L292.07812 116.188576ZM289.125 117.188576L288.5 116.79795L292.67188 110.126076L293.28125 110.5167L289.125 117.188576Z" fill-rule="nonzero"/><path fill="#ffffff" d="M268.39062 111.5167Q268.39062 112.157326 268.04688 112.657326Q267.70312 113.157326 267.14062 113.438576Q267.79688 113.719826 268.1875 114.282326Q268.57812 114.8292 268.57812 115.532326Q268.57812 116.626076 267.82812 117.29795Q267.09375 117.9542 265.875 117.9542Q264.64062 117.9542 263.89062 117.29795Q263.15625 116.626076 263.15625 115.532326Q263.15625 114.8292 263.53125 114.282326Q263.90625 113.719826 264.57812 113.438576Q264.01562 113.157326 263.6875 112.657326Q263.35938 112.157326 263.35938 111.5167Q263.35938 110.438576 264.04688 109.813576Q264.73438 109.17295 265.875 109.17295Q267.0 109.17295 267.6875 109.813576Q268.39062 110.438576 268.39062 111.5167ZM267.5 115.501076Q267.5 114.782326 267.04688 114.344826Q266.59375 113.8917 265.85938 113.8917Q265.125 113.8917 264.67188 114.344826Q264.23438 114.782326 264.23438 115.5167Q264.23438 116.23545 264.67188 116.657326Q265.10938 117.063576 265.875 117.063576Q266.625 117.063576 267.0625 116.6417Q267.5 116.219826 267.5 115.501076ZM265.875 110.063576Q265.23438 110.063576 264.82812 110.469826Q264.4375 110.86045 264.4375 111.54795Q264.4375 112.188576 264.82812 112.594826Q265.21875 113.001076 265.85938 113.001076Q266.51562 113.001076 266.90625 112.594826Q267.29688 112.188576 267.29688 111.54795Q267.29688 110.8917 266.89062 110.48545Q266.48438 110.063576 265.875 110.063576ZM274.46875 109.29795L274.46875 110.2042L274.26562 110.2042Q273.0 110.23545 272.25 110.969826Q271.5 111.688576 271.375 113.001076Q272.0625 112.23545 273.21875 112.23545Q274.32812 112.23545 275.0 113.0167Q275.67188 113.79795 275.67188 115.04795Q275.67188 116.36045 274.95312 117.157326Q274.23438 117.9542 273.01562 117.9542Q271.79688 117.9542 271.03125 117.0167Q270.28125 116.063576 270.28125 114.5792L270.28125 114.17295Q270.28125 111.813576 271.28125 110.563576Q272.28125 109.313576 274.26562 109.29795L274.46875 109.29795ZM273.04688 113.1417Q272.48438 113.1417 272.01562 113.469826Q271.54688 113.79795 271.35938 114.313576L271.35938 114.7042Q271.35938 115.7667 271.82812 116.407326Q272.3125 117.04795 273.01562 117.04795Q273.75 117.04795 274.17188 116.5167Q274.59375 115.969826 274.59375 115.094826Q274.59375 114.219826 274.17188 113.688576Q273.75 113.1417 273.04688 113.1417ZM277.34375 117.2667Q277.34375 116.98545 277.5 116.79795Q277.67188 116.61045 278.0 116.61045Q278.34375 116.61045 278.51562 116.79795Q278.6875 116.98545 278.6875 117.2667Q278.6875 117.532326 278.51562 117.719826Q278.34375 117.8917 278.0 117.8917Q277.67188 117.8917 277.5 117.719826Q277.34375 117.532326 277.34375 117.2667ZM284.78125 114.969826L285.96875 114.969826L285.96875 115.844826L284.78125 115.844826L284.78125 117.8292L283.70312 117.8292L283.70312 115.844826L279.8125 115.844826L279.8125 115.2042L283.625 109.29795L284.78125 109.29795L284.78125 114.969826ZM281.04688 114.969826L283.70312 114.969826L283.70312 110.782326L283.5625 111.0167L281.04688 114.969826ZM287.10938 110.938576Q287.10938 110.17295 287.59375 109.67295Q288.09375 109.17295 288.85938 109.17295Q289.64062 109.17295 290.125 109.67295Q290.60938 110.17295 290.60938 110.969826L290.60938 111.3917Q290.60938 112.157326 290.10938 112.657326Q289.625 113.1417 288.875 113.1417Q288.10938 113.1417 287.60938 112.657326Q287.10938 112.157326 287.10938 111.344826L287.10938 110.938576ZM287.92188 111.3917Q287.92188 111.844826 288.17188 112.1417Q288.4375 112.438576 288.875 112.438576Q289.29688 112.438576 289.54688 112.157326Q289.79688 111.86045 289.79688 111.36045L289.79688 110.938576Q289.79688 110.48545 289.54688 110.188576Q289.29688 109.876076 288.85938 109.876076Q288.42188 109.876076 288.17188 110.188576Q287.92188 110.48545 287.92188 110.9542L287.92188 111.3917ZM291.26562 115.73545Q291.26562 114.969826 291.75 114.48545Q292.25 113.98545 293.01562 113.98545Q293.78125 113.98545 294.26562 114.48545Q294.76562 114.969826 294.76562 115.782326L294.76562 116.188576Q294.76562 116.9542 294.28125 117.4542Q293.79688 117.9542 293.03125 117.9542Q292.26562 117.9542 291.76562 117.469826Q291.26562 116.969826 291.26562 116.157326L291.26562 115.73545ZM292.07812 116.188576Q292.07812 116.657326 292.32812 116.9542Q292.59375 117.251076 293.03125 117.251076Q293.45312 117.251076 293.70312 116.969826Q293.95312 116.67295 293.95312 116.17295L293.95312 115.73545Q293.95312 115.2667 293.6875 114.98545Q293.4375 114.688576 293.01562 114.688576Q292.59375 114.688576 292.32812 114.98545Q292.07812 115.2667 292.07812 115.7667L292.07812 116.188576ZM289.125 117.188576L288.5 116.79795L292.67188 110.126076L293.28125 110.5167L289.125 117.188576Z" fill-rule="nonzero"/><path fill="#000000" d="M41.39375 331.09064Q41.39375 333.4344 40.659374 334.54376Q39.925 335.6375 38.378124 335.6375Q36.8 335.6375 36.065624 334.52814Q35.346874 333.40314 35.346874 331.09064Q35.346874 328.7625 36.08125 327.65314Q36.815624 326.54376 38.378124 326.54376Q39.940624 326.54376 40.659374 327.6844Q41.39375 328.8094 41.39375 331.09064ZM39.846874 333.7469Q40.05 333.2625 40.128124 332.6219Q40.20625 331.98126 40.20625 331.09064Q40.20625 330.2 40.128124 329.54376Q40.05 328.8875 39.846874 328.41876Q39.64375 327.96564 39.284374 327.7469Q38.925 327.5125 38.378124 327.5125Q37.815624 327.5125 37.45625 327.7469Q37.096874 327.96564 36.89375 328.4344Q36.690624 328.8719 36.6125 329.575Q36.55 330.2625 36.55 331.09064Q36.55 332.0125 36.6125 332.6375Q36.675 333.2469 36.878124 333.73126Q37.08125 334.1844 37.425 334.4344Q37.784374 334.66876 38.378124 334.66876Q38.925 334.66876 39.284374 334.4344Q39.64375 334.2 39.846874 333.7469ZM47.7375 329.1375Q47.7375 330.45 47.175 331.09064Q46.628124 331.73126 45.58125 331.73126Q44.51875 331.73126 43.971874 331.09064Q43.425 330.45 43.425 329.15314Q43.425 327.84064 43.971874 327.2Q44.534374 326.5594 45.58125 326.5594Q46.64375 326.5594 47.190624 327.21564Q47.7375 327.85626 47.7375 329.1375ZM51.784374 326.73126L47.20625 335.45L46.2375 335.45L50.815624 326.73126L51.784374 326.73126ZM54.596874 333.02814Q54.596874 334.34064 54.034374 334.98126Q53.471874 335.6219 52.440624 335.6219Q51.378124 335.6219 50.83125 334.98126Q50.284374 334.325 50.284374 333.02814Q50.284374 331.71564 50.83125 331.09064Q51.39375 330.45 52.440624 330.45Q53.503124 330.45 54.05 331.09064Q54.596874 331.71564 54.596874 333.02814ZM46.690624 329.1375Q46.690624 328.1375 46.425 327.7469Q46.159374 327.34064 45.58125 327.34064Q44.9875 327.34064 44.721874 327.7469Q44.471874 328.1375 44.471874 329.15314Q44.471874 330.16876 44.721874 330.5594Q44.9875 330.95 45.58125 330.95Q46.159374 330.95 46.425 330.5594Q46.690624 330.16876 46.690624 329.1375ZM53.55 333.02814Q53.55 332.02814 53.284374 331.6375Q53.034374 331.23126 52.440624 331.23126Q51.846874 331.23126 51.58125 331.6375Q51.33125 332.02814 51.33125 333.02814Q51.33125 334.04376 51.58125 334.45Q51.846874 334.84064 52.440624 334.84064Q53.034374 334.84064 53.284374 334.45Q53.55 334.04376 53.55 333.02814Z" fill-rule="nonzero"/><path fill="#000000" d="M33.39375 269.06668L27.4875 269.06668L27.4875 267.84793Q28.1125 267.31668 28.721874 266.78543Q29.346874 266.25418 29.878124 265.73856Q31.003124 264.6448 31.409374 264.00418Q31.83125 263.36356 31.83125 262.61356Q31.83125 261.94168 31.378124 261.56668Q30.940624 261.17606 30.14375 261.17606Q29.596874 261.17606 28.971874 261.36356Q28.3625 261.55106 27.76875 261.94168L27.70625 261.94168L27.70625 260.7073Q28.128124 260.50418 28.815624 260.3323Q29.51875 260.16043 30.159374 260.16043Q31.503124 260.16043 32.26875 260.81668Q33.034374 261.4573 33.034374 262.56668Q33.034374 263.06668 32.909374 263.50418Q32.784374 263.92606 32.534374 264.30106Q32.3 264.67606 31.9875 265.03543Q31.690624 265.37918 31.253124 265.80106Q30.628124 266.41043 29.95625 266.98856Q29.284374 267.56668 28.70625 268.06668L33.39375 268.06668L33.39375 269.06668ZM41.33125 266.30106Q41.33125 266.91043 41.096874 267.47293Q40.878124 268.0198 40.503124 268.3948Q40.08125 268.80106 39.4875 269.03543Q38.909374 269.25418 38.14375 269.25418Q37.425 269.25418 36.753124 269.09793Q36.096874 268.94168 35.64375 268.73856L35.64375 267.50418L35.721874 267.50418Q36.20625 267.80106 36.846874 268.0198Q37.503124 268.23856 38.1125 268.23856Q38.534374 268.23856 38.925 268.12918Q39.315624 268.00418 39.6125 267.7073Q39.878124 267.4573 40.003124 267.11356Q40.14375 266.75418 40.14375 266.28543Q40.14375 265.8323 39.9875 265.53543Q39.83125 265.22293 39.55 265.03543Q39.253124 264.80106 38.815624 264.72293Q38.378124 264.62918 37.83125 264.62918Q37.315624 264.62918 36.83125 264.7073Q36.3625 264.7698 36.01875 264.8323L36.01875 260.34793L41.26875 260.34793L41.26875 261.36356L37.159374 261.36356L37.159374 263.69168Q37.409374 263.66043 37.659374 263.66043Q37.925 263.6448 38.128124 263.6448Q38.83125 263.6448 39.3625 263.7698Q39.89375 263.87918 40.346874 264.19168Q40.815624 264.50418 41.065624 265.0198Q41.33125 265.5198 41.33125 266.30106ZM47.7375 262.75418Q47.7375 264.06668 47.175 264.7073Q46.628124 265.34793 45.58125 265.34793Q44.51875 265.34793 43.971874 264.7073Q43.425 264.06668 43.425 262.7698Q43.425 261.4573 43.971874 260.81668Q44.534374 260.17606 45.58125 260.17606Q46.64375 260.17606 47.190624 260.8323Q47.7375 261.47293 47.7375 262.75418ZM51.784374 260.34793L47.20625 269.06668L46.2375 269.06668L50.815624 260.34793L51.784374 260.34793ZM54.596874 266.6448Q54.596874 267.9573 54.034374 268.59793Q53.471874 269.23856 52.440624 269.23856Q51.378124 269.23856 50.83125 268.59793Q50.284374 267.94168 50.284374 266.6448Q50.284374 265.3323 50.83125 264.7073Q51.39375 264.06668 52.440624 264.06668Q53.503124 264.06668 54.05 264.7073Q54.596874 265.3323 54.596874 266.6448ZM46.690624 262.75418Q46.690624 261.75418 46.425 261.36356Q46.159374 260.9573 45.58125 260.9573Q44.9875 260.9573 44.721874 261.36356Q44.471874 261.75418 44.471874 262.7698Q44.471874 263.78543 44.721874 264.17606Q44.9875 264.56668 45.58125 264.56668Q46.159374 264.56668 46.425 264.17606Q46.690624 263.78543 46.690624 262.75418ZM53.55 266.6448Q53.55 265.6448 53.284374 265.25418Q53.034374 264.84793 52.440624 264.84793Q51.846874 264.84793 51.58125 265.25418Q51.33125 265.6448 51.33125 266.6448Q51.33125 267.66043 51.58125 268.06668Q51.846874 268.4573 52.440624 268.4573Q53.034374 268.4573 53.284374 268.06668Q53.55 267.66043 53.55 266.6448Z" fill-rule="nonzero"/><path fill="#000000" d="M33.33125 199.91771Q33.33125 200.52708 33.096874 201.08958Q32.878124 201.63646 32.503124 202.01146Q32.08125 202.41771 31.4875 202.65208Q30.909374 202.87083 30.14375 202.87083Q29.425 202.87083 28.753124 202.71458Q28.096874 202.55833 27.64375 202.35521L27.64375 201.12083L27.721874 201.12083Q28.20625 201.41771 28.846874 201.63646Q29.503124 201.85521 30.1125 201.85521Q30.534374 201.85521 30.925 201.74583Q31.315624 201.62083 31.6125 201.32396Q31.878124 201.07396 32.003124 200.73021Q32.14375 200.37083 32.14375 199.90208Q32.14375 199.44896 31.9875 199.15208Q31.83125 198.83958 31.55 198.65208Q31.253124 198.41771 30.815624 198.33958Q30.378124 198.24583 29.83125 198.24583Q29.315624 198.24583 28.83125 198.32396Q28.3625 198.38646 28.01875 198.44896L28.01875 193.96458L33.26875 193.96458L33.26875 194.98021L29.159374 194.98021L29.159374 197.30833Q29.409374 197.27708 29.659374 197.27708Q29.925 197.26146 30.128124 197.26146Q30.83125 197.26146 31.3625 197.38646Q31.89375 197.49583 32.346874 197.80833Q32.815624 198.12083 33.065624 198.63646Q33.33125 199.13646 33.33125 199.91771ZM41.39375 198.32396Q41.39375 200.66771 40.659374 201.77708Q39.925 202.87083 38.378124 202.87083Q36.8 202.87083 36.065624 201.76146Q35.346874 200.63646 35.346874 198.32396Q35.346874 195.99583 36.08125 194.88646Q36.815624 193.77708 38.378124 193.77708Q39.940624 193.77708 40.659374 194.91771Q41.39375 196.04271 41.39375 198.32396ZM39.846874 200.98021Q40.05 200.49583 40.128124 199.85521Q40.20625 199.21458 40.20625 198.32396Q40.20625 197.43333 40.128124 196.77708Q40.05 196.12083 39.846874 195.65208Q39.64375 195.19896 39.284374 194.98021Q38.925 194.74583 38.378124 194.74583Q37.815624 194.74583 37.45625 194.98021Q37.096874 195.19896 36.89375 195.66771Q36.690624 196.10521 36.6125 196.80833Q36.55 197.49583 36.55 198.32396Q36.55 199.24583 36.6125 199.87083Q36.675 200.48021 36.878124 200.96458Q37.08125 201.41771 37.425 201.66771Q37.784374 201.90208 38.378124 201.90208Q38.925 201.90208 39.284374 201.66771Q39.64375 201.43333 39.846874 200.98021ZM47.7375 196.37083Q47.7375 197.68333 47.175 198.32396Q46.628124 198.96458 45.58125 198.96458Q44.51875 198.96458 43.971874 198.32396Q43.425 197.68333 43.425 196.38646Q43.425 195.07396 43.971874 194.43333Q44.534374 193.79271 45.58125 193.79271Q46.64375 193.79271 47.190624 194.44896Q47.7375 195.08958 47.7375 196.37083ZM51.784374 193.96458L47.20625 202.68333L46.2375 202.68333L50.815624 193.96458L51.784374 193.96458ZM54.596874 200.26146Q54.596874 201.57396 54.034374 202.21458Q53.471874 202.85521 52.440624 202.85521Q51.378124 202.85521 50.83125 202.21458Q50.284374 201.55833 50.284374 200.26146Q50.284374 198.94896 50.83125 198.32396Q51.39375 197.68333 52.440624 197.68333Q53.503124 197.68333 54.05 198.32396Q54.596874 198.94896 54.596874 200.26146ZM46.690624 196.37083Q46.690624 195.37083 46.425 194.98021Q46.159374 194.57396 45.58125 194.57396Q44.9875 194.57396 44.721874 194.98021Q44.471874 195.37083 44.471874 196.38646Q44.471874 197.40208 44.721874 197.79271Q44.9875 198.18333 45.58125 198.18333Q46.159374 198.18333 46.425 197.79271Q46.690624 197.40208 46.690624 196.37083ZM53.55 200.26146Q53.55 199.26146 53.284374 198.87083Q53.034374 198.46458 52.440624 198.46458Q51.846874 198.46458 51.58125 198.87083Q51.33125 199.26146 51.33125 200.26146Q51.33125 201.27708 51.58125 201.68333Q51.846874 202.07396 52.440624 202.07396Q53.034374 202.07396 53.284374 201.68333Q53.55 201.27708 53.55 200.26146Z" fill-rule="nonzero"/><path fill="#000000" d="M33.425 128.87813L29.471874 136.3L28.221874 136.3L32.425 128.59688L27.45625 128.59688L27.45625 127.58125L33.425 127.58125L33.425 128.87813ZM41.33125 133.53438Q41.33125 134.14375 41.096874 134.70625Q40.878124 135.25313 40.503124 135.62813Q40.08125 136.03438 39.4875 136.26875Q38.909374 136.4875 38.14375 136.4875Q37.425 136.4875 36.753124 136.33125Q36.096874 136.175 35.64375 135.97188L35.64375 134.7375L35.721874 134.7375Q36.20625 135.03438 36.846874 135.25313Q37.503124 135.47188 38.1125 135.47188Q38.534374 135.47188 38.925 135.3625Q39.315624 135.2375 39.6125 134.94063Q39.878124 134.69063 40.003124 134.34688Q40.14375 133.9875 40.14375 133.51875Q40.14375 133.06563 39.9875 132.76875Q39.83125 132.45625 39.55 132.26875Q39.253124 132.03438 38.815624 131.95625Q38.378124 131.8625 37.83125 131.8625Q37.315624 131.8625 36.83125 131.94063Q36.3625 132.00313 36.01875 132.06563L36.01875 127.58125L41.26875 127.58125L41.26875 128.59688L37.159374 128.59688L37.159374 130.925Q37.409374 130.89375 37.659374 130.89375Q37.925 130.87813 38.128124 130.87813Q38.83125 130.87813 39.3625 131.00313Q39.89375 131.1125 40.346874 131.425Q40.815624 131.7375 41.065624 132.25313Q41.33125 132.75313 41.33125 133.53438ZM47.7375 129.9875Q47.7375 131.3 47.175 131.94063Q46.628124 132.58125 45.58125 132.58125Q44.51875 132.58125 43.971874 131.94063Q43.425 131.3 43.425 130.00313Q43.425 128.69063 43.971874 128.05Q44.534374 127.40938 45.58125 127.40938Q46.64375 127.40938 47.190624 128.06563Q47.7375 128.70625 47.7375 129.9875ZM51.784374 127.58125L47.20625 136.3L46.2375 136.3L50.815624 127.58125L51.784374 127.58125ZM54.596874 133.87813Q54.596874 135.19063 54.034374 135.83125Q53.471874 136.47188 52.440624 136.47188Q51.378124 136.47188 50.83125 135.83125Q50.284374 135.175 50.284374 133.87813Q50.284374 132.56563 50.83125 131.94063Q51.39375 131.3 52.440624 131.3Q53.503124 131.3 54.05 131.94063Q54.596874 132.56563 54.596874 133.87813ZM46.690624 129.9875Q46.690624 128.9875 46.425 128.59688Q46.159374 128.19063 45.58125 128.19063Q44.9875 128.19063 44.721874 128.59688Q44.471874 128.9875 44.471874 130.00313Q44.471874 131.01875 44.721874 131.40938Q44.9875 131.8 45.58125 131.8Q46.159374 131.8 46.425 131.40938Q46.690624 131.01875 46.690624 129.9875ZM53.55 133.87813Q53.55 132.87813 53.284374 132.4875Q53.034374 132.08125 52.440624 132.08125Q51.846874 132.08125 51.58125 132.4875Q51.33125 132.87813 51.33125 133.87813Q51.33125 134.89375 51.58125 135.3Q51.846874 135.69063 52.440624 135.69063Q53.034374 135.69063 53.284374 135.3Q53.55 134.89375 53.55 133.87813Z" fill-rule="nonzero"/><path fill="#000000" d="M24.909374 69.916664L20.175 69.916664L20.175 69.02604L22.003124 69.02604L22.003124 63.18229L20.175 63.18229L20.175 62.385414Q20.55 62.385414 20.971874 62.322914Q21.39375 62.260414 21.6125 62.135414Q21.878124 61.99479 22.034374 61.77604Q22.190624 61.541664 22.20625 61.166664L23.128124 61.166664L23.128124 69.02604L24.909374 69.02604L24.909374 69.916664ZM33.39375 65.55729Q33.39375 67.90104 32.659374 69.010414Q31.925 70.104164 30.378124 70.104164Q28.8 70.104164 28.065624 68.99479Q27.346874 67.86979 27.346874 65.55729Q27.346874 63.229164 28.08125 62.11979Q28.815624 61.010414 30.378124 61.010414Q31.940624 61.010414 32.659374 62.15104Q33.39375 63.27604 33.39375 65.55729ZM31.846874 68.21354Q32.05 67.729164 32.128124 67.08854Q32.20625 66.447914 32.20625 65.55729Q32.20625 64.666664 32.128124 64.010414Q32.05 63.354164 31.846874 62.885414Q31.64375 62.43229 31.284374 62.21354Q30.925 61.979164 30.378124 61.979164Q29.815624 61.979164 29.45625 62.21354Q29.096874 62.43229 28.89375 62.90104Q28.690624 63.33854 28.6125 64.041664Q28.55 64.729164 28.55 65.55729Q28.55 66.479164 28.6125 67.104164Q28.675 67.71354 28.878124 68.197914Q29.08125 68.65104 29.425 68.90104Q29.784374 69.135414 30.378124 69.135414Q30.925 69.135414 31.284374 68.90104Q31.64375 68.666664 31.846874 68.21354ZM41.39375 65.55729Q41.39375 67.90104 40.659374 69.010414Q39.925 70.104164 38.378124 70.104164Q36.8 70.104164 36.065624 68.99479Q35.346874 67.86979 35.346874 65.55729Q35.346874 63.229164 36.08125 62.11979Q36.815624 61.010414 38.378124 61.010414Q39.940624 61.010414 40.659374 62.15104Q41.39375 63.27604 41.39375 65.55729ZM39.846874 68.21354Q40.05 67.729164 40.128124 67.08854Q40.20625 66.447914 40.20625 65.55729Q40.20625 64.666664 40.128124 64.010414Q40.05 63.354164 39.846874 62.885414Q39.64375 62.43229 39.284374 62.21354Q38.925 61.979164 38.378124 61.979164Q37.815624 61.979164 37.45625 62.21354Q37.096874 62.43229 36.89375 62.90104Q36.690624 63.33854 36.6125 64.041664Q36.55 64.729164 36.55 65.55729Q36.55 66.479164 36.6125 67.104164Q36.675 67.71354 36.878124 68.197914Q37.08125 68.65104 37.425 68.90104Q37.784374 69.135414 38.378124 69.135414Q38.925 69.135414 39.284374 68.90104Q39.64375 68.666664 39.846874 68.21354ZM47.7375 63.604164Q47.7375 64.916664 47.175 65.55729Q46.628124 66.197914 45.58125 66.197914Q44.51875 66.197914 43.971874 65.55729Q43.425 64.916664 43.425 63.61979Q43.425 62.30729 43.971874 61.666664Q44.534374 61.02604 45.58125 61.02604Q46.64375 61.02604 47.190624 61.68229Q47.7375 62.322914 47.7375 63.604164ZM51.784374 61.197914L47.20625 69.916664L46.2375 69.916664L50.815624 61.197914L51.784374 61.197914ZM54.596874 67.49479Q54.596874 68.80729 54.034374 69.447914Q53.471874 70.08854 52.440624 70.08854Q51.378124 70.08854 50.83125 69.447914Q50.284374 68.791664 50.284374 67.49479Q50.284374 66.18229 50.83125 65.55729Q51.39375 64.916664 52.440624 64.916664Q53.503124 64.916664 54.05 65.55729Q54.596874 66.18229 54.596874 67.49479ZM46.690624 63.604164Q46.690624 62.604164 46.425 62.21354Q46.159374 61.80729 45.58125 61.80729Q44.9875 61.80729 44.721874 62.21354Q44.471874 62.604164 44.471874 63.61979Q44.471874 64.635414 44.721874 65.02604Q44.9875 65.416664 45.58125 65.416664Q46.159374 65.416664 46.425 65.02604Q46.690624 64.635414 46.690624 63.604164ZM53.55 67.49479Q53.55 66.49479 53.284374 66.104164Q53.034374 65.697914 52.440624 65.697914Q51.846874 65.697914 51.58125 66.104164Q51.33125 66.49479 51.33125 67.49479Q51.33125 68.510414 51.58125 68.916664Q51.846874 69.30729 52.440624 69.30729Q53.034374 69.30729 53.284374 68.916664Q53.55 68.510414 53.55 67.49479Z" fill-rule="nonzero"/><path fill="#000000" d="M269.35202 349.45L268.24265 349.45L268.24265 340.325L269.35202 340.325L269.35202 349.45ZM276.80515 346.1844Q276.80515 347.77814 275.97702 348.71564Q275.16452 349.6375 273.78952 349.6375Q272.3989 349.6375 271.5864 348.71564Q270.7739 347.77814 270.7739 346.1844Q270.7739 344.575 271.5864 343.65314Q272.3989 342.71564 273.78952 342.71564Q275.16452 342.71564 275.97702 343.65314Q276.80515 344.575 276.80515 346.1844ZM275.68015 346.1844Q275.68015 344.90314 275.18015 344.29376Q274.68015 343.66876 273.78952 343.66876Q272.8989 343.66876 272.3989 344.29376Q271.91452 344.90314 271.91452 346.1844Q271.91452 347.40314 272.3989 348.04376Q272.8989 348.6844 273.78952 348.6844Q274.68015 348.6844 275.18015 348.0594Q275.68015 347.41876 275.68015 346.1844ZM283.32077 349.45L282.22702 349.45L282.22702 348.7469Q282.07077 348.85626 281.82077 349.04376Q281.5864 349.21564 281.35202 349.3094Q281.07077 349.45 280.7114 349.54376Q280.35202 349.6375 279.86765 349.6375Q278.99265 349.6375 278.36765 349.0594Q277.75827 348.46564 277.75827 347.54376Q277.75827 346.8094 278.07077 346.35626Q278.3989 345.8875 278.99265 345.6219Q279.5864 345.35626 280.41452 345.2625Q281.25827 345.16876 282.22702 345.1219L282.22702 344.95Q282.22702 344.575 282.0864 344.34064Q281.9614 344.09064 281.7114 343.95Q281.47702 343.8094 281.1489 343.7625Q280.82077 343.71564 280.4614 343.71564Q280.03952 343.71564 279.49265 343.84064Q278.9614 343.95 278.3989 344.16876L278.3364 344.16876L278.3364 343.04376Q278.66452 342.95 279.2739 342.85626Q279.88327 342.7469 280.47702 342.7469Q281.16452 342.7469 281.68015 342.8719Q282.19577 342.98126 282.57077 343.2469Q282.93015 343.5125 283.11765 343.95Q283.32077 344.3719 283.32077 345.0125L283.32077 349.45ZM282.22702 347.84064L282.22702 346.0125Q281.72702 346.04376 281.03952 346.10626Q280.35202 346.16876 279.9614 346.27814Q279.47702 346.40314 279.18015 346.7Q278.8989 346.98126 278.8989 347.48126Q278.8989 348.04376 279.22702 348.325Q279.57077 348.60626 280.2739 348.60626Q280.85202 348.60626 281.3364 348.3875Q281.82077 348.15314 282.22702 347.84064ZM290.53952 349.45L289.44577 349.45L289.44577 348.7625Q288.9614 349.16876 288.44577 349.40314Q287.93015 349.6375 287.3364 349.6375Q286.16452 349.6375 285.47702 348.73126Q284.78952 347.825 284.78952 346.23126Q284.78952 345.3875 285.0239 344.7469Q285.25827 344.09064 285.66452 343.6375Q286.05515 343.1844 286.5864 342.95Q287.11765 342.71564 287.69577 342.71564Q288.2114 342.71564 288.60202 342.825Q289.00827 342.9344 289.44577 343.16876L289.44577 340.325L290.53952 340.325L290.53952 349.45ZM289.44577 347.84064L289.44577 344.075Q288.99265 343.8875 288.63327 343.8094Q288.28952 343.73126 287.88327 343.73126Q286.94577 343.73126 286.43015 344.3719Q285.91452 345.0125 285.91452 346.2Q285.91452 347.3719 286.30515 347.98126Q286.7114 348.575 287.60202 348.575Q288.07077 348.575 288.53952 348.3719Q289.0239 348.16876 289.44577 347.84064Z" fill-rule="nonzero"/><path fill="#cccccc" d="M516.45 59.916668C516.45 59.364384 516.8977 58.916668 517.45 58.916668L527.45 58.916668C528.00226 58.916668 528.45 59.364384 528.45 59.916668L528.45 69.916664C528.45 70.46895 528.00226 70.916664 527.45 70.916664L517.45 70.916664C516.8977 70.916664 516.45 70.46895 516.45 69.916664Z" fill-rule="nonzero"/><path fill="#1a1a1a" d="M547.09064 69.916664L545.98126 69.916664L545.98126 66.18229Q545.98126 65.760414 545.9344 65.36979Q545.90314 64.979164 545.77814 64.74479Q545.65314 64.49479 545.40314 64.36979Q545.15314 64.24479 544.66876 64.24479Q544.21564 64.24479 543.7469 64.479164Q543.27814 64.697914 542.825 65.05729Q542.84064 65.197914 542.84064 65.385414Q542.85626 65.55729 542.85626 65.729164L542.85626 69.916664L541.7625 69.916664L541.7625 66.18229Q541.7625 65.760414 541.71564 65.36979Q541.6844 64.979164 541.5594 64.74479Q541.41876 64.49479 541.16876 64.36979Q540.91876 64.24479 540.45 64.24479Q539.9969 64.24479 539.54376 64.46354Q539.09064 64.68229 538.6375 65.02604L538.6375 69.916664L537.52814 69.916664L537.52814 63.36979L538.6375 63.36979L538.6375 64.104164Q539.15314 63.666664 539.66876 63.43229Q540.1844 63.18229 540.7625 63.18229Q541.41876 63.18229 541.8875 63.46354Q542.35626 63.74479 542.59064 64.24479Q543.2469 63.68229 543.79376 63.43229Q544.35626 63.18229 544.98126 63.18229Q546.0594 63.18229 546.575 63.83854Q547.09064 64.49479 547.09064 65.666664L547.09064 69.916664ZM550.71564 62.27604L549.48126 62.27604L549.48126 61.135414L550.71564 61.135414L550.71564 62.27604ZM550.65314 69.916664L549.54376 69.916664L549.54376 63.36979L550.65314 63.36979L550.65314 69.916664ZM557.21564 68.02604Q557.21564 68.93229 556.46564 69.510414Q555.73126 70.072914 554.45 70.072914Q553.71564 70.072914 553.10626 69.90104Q552.5125 69.729164 552.09064 69.52604L552.09064 68.291664L552.15314 68.291664Q552.66876 68.68229 553.3094 68.916664Q553.95 69.135414 554.54376 69.135414Q555.2625 69.135414 555.66876 68.90104Q556.09064 68.666664 556.09064 68.166664Q556.09064 67.77604 555.85626 67.58854Q555.6375 67.385414 555.0125 67.24479Q554.77814 67.197914 554.3875 67.135414Q554.0125 67.05729 553.7 66.96354Q552.84064 66.74479 552.48126 66.30729Q552.1219 65.854164 552.1219 65.21354Q552.1219 64.80729 552.29376 64.447914Q552.46564 64.08854 552.79376 63.80729Q553.1219 63.541664 553.6219 63.385414Q554.1375 63.21354 554.7625 63.21354Q555.35626 63.21354 555.95 63.354164Q556.5594 63.49479 556.95 63.697914L556.95 64.885414L556.8875 64.885414Q556.46564 64.572914 555.85626 64.36979Q555.2625 64.15104 554.6844 64.15104Q554.075 64.15104 553.65314 64.385414Q553.2469 64.604164 553.2469 65.05729Q553.2469 65.46354 553.4969 65.666664Q553.7469 65.885414 554.29376 66.010414Q554.60626 66.072914 554.98126 66.15104Q555.35626 66.21354 555.60626 66.27604Q556.3719 66.447914 556.79376 66.885414Q557.21564 67.30729 557.21564 68.02604ZM563.21564 68.02604Q563.21564 68.93229 562.46564 69.510414Q561.73126 70.072914 560.45 70.072914Q559.71564 70.072914 559.10626 69.90104Q558.5125 69.729164 558.09064 69.52604L558.09064 68.291664L558.15314 68.291664Q558.66876 68.68229 559.3094 68.916664Q559.95 69.135414 560.54376 69.135414Q561.2625 69.135414 561.66876 68.90104Q562.09064 68.666664 562.09064 68.166664Q562.09064 67.77604 561.85626 67.58854Q561.6375 67.385414 561.0125 67.24479Q560.77814 67.197914 560.3875 67.135414Q560.0125 67.05729 559.7 66.96354Q558.84064 66.74479 558.48126 66.30729Q558.1219 65.854164 558.1219 65.21354Q558.1219 64.80729 558.29376 64.447914Q558.46564 64.08854 558.79376 63.80729Q559.1219 63.541664 559.6219 63.385414Q560.1375 63.21354 560.7625 63.21354Q561.35626 63.21354 561.95 63.354164Q562.5594 63.49479 562.95 63.697914L562.95 64.885414L562.8875 64.885414Q562.46564 64.572914 561.85626 64.36979Q561.2625 64.15104 560.6844 64.15104Q560.075 64.15104 559.65314 64.385414Q559.2469 64.604164 559.2469 65.05729Q559.2469 65.46354 559.4969 65.666664Q559.7469 65.885414 560.29376 66.010414Q560.60626 66.072914 560.98126 66.15104Q561.35626 66.21354 561.60626 66.27604Q562.3719 66.447914 562.79376 66.885414Q563.21564 67.30729 563.21564 68.02604ZM565.71564 62.27604L564.48126 62.27604L564.48126 61.135414L565.71564 61.135414L565.71564 62.27604ZM565.65314 69.916664L564.54376 69.916664L564.54376 63.36979L565.65314 63.36979L565.65314 69.916664ZM573.0125 69.916664L571.90314 69.916664L571.90314 66.18229Q571.90314 65.74479 571.84064 65.354164Q571.79376 64.947914 571.65314 64.729164Q571.5125 64.479164 571.23126 64.36979Q570.96564 64.24479 570.52814 64.24479Q570.075 64.24479 569.575 64.46354Q569.09064 64.68229 568.6375 65.02604L568.6375 69.916664L567.52814 69.916664L567.52814 63.36979L568.6375 63.36979L568.6375 64.104164Q569.15314 63.666664 569.7 63.43229Q570.2469 63.18229 570.84064 63.18229Q571.8875 63.18229 572.45 63.822914Q573.0125 64.46354 573.0125 65.666664L573.0125 69.916664ZM580.84064 69.166664Q580.84064 70.83854 580.075 71.61979Q579.325 72.40104 577.7625 72.40104Q577.2469 72.40104 576.7469 72.322914Q576.2469 72.24479 575.7625 72.11979L575.7625 70.99479L575.825 70.99479Q576.09064 71.08854 576.66876 71.24479Q577.2625 71.40104 577.85626 71.40104Q578.41876 71.40104 578.77814 71.260414Q579.15314 71.135414 579.35626 70.90104Q579.5594 70.666664 579.65314 70.33854Q579.7469 70.02604 579.7469 69.61979L579.7469 69.02604Q579.2469 69.416664 578.79376 69.61979Q578.34064 69.822914 577.6375 69.822914Q576.46564 69.822914 575.77814 68.979164Q575.09064 68.11979 575.09064 66.58854Q575.09064 65.74479 575.325 65.135414Q575.5594 64.510414 575.96564 64.072914Q576.35626 63.65104 576.8875 63.416664Q577.4344 63.18229 577.98126 63.18229Q578.54376 63.18229 578.91876 63.30729Q579.3094 63.416664 579.7469 63.65104L579.8094 63.36979L580.84064 63.36979L580.84064 69.166664ZM579.7469 68.11979L579.7469 64.541664Q579.3094 64.354164 578.91876 64.27604Q578.54376 64.18229 578.16876 64.18229Q577.2625 64.18229 576.73126 64.791664Q576.21564 65.40104 576.21564 66.55729Q576.21564 67.666664 576.60626 68.229164Q576.9969 68.791664 577.8875 68.791664Q578.3719 68.791664 578.85626 68.61979Q579.34064 68.43229 579.7469 68.11979Z" fill-rule="nonzero"/><path fill="#4285f4" d="M516.45 85.916664C516.45 85.36438 516.8977 84.916664 517.45 84.916664L527.45 84.916664C528.00226 84.916664 528.45 85.36438 528.45 85.916664L528.45 95.916664C528.45 96.46895 528.00226 96.916664 527.45 96.916664L517.45 96.916664C516.8977 96.916664 516.45 96.46895 516.45 95.916664Z" fill-rule="nonzero"/><path fill="#1a1a1a" d="M542.6219 95.916664L541.52814 95.916664L541.52814 95.21354Q541.3719 95.322914 541.1219 95.510414Q540.8875 95.68229 540.65314 95.77604Q540.3719 95.916664 540.0125 96.010414Q539.65314 96.104164 539.16876 96.104164Q538.29376 96.104164 537.66876 95.52604Q537.0594 94.93229 537.0594 94.010414Q537.0594 93.27604 537.3719 92.822914Q537.7 92.354164 538.29376 92.08854Q538.8875 91.822914 539.71564 91.729164Q540.5594 91.635414 541.52814 91.58854L541.52814 91.416664Q541.52814 91.041664 541.3875 90.80729Q541.2625 90.55729 541.0125 90.416664Q540.77814 90.27604 540.45 90.229164Q540.1219 90.18229 539.7625 90.18229Q539.34064 90.18229 538.79376 90.30729Q538.2625 90.416664 537.7 90.635414L537.6375 90.635414L537.6375 89.510414Q537.96564 89.416664 538.575 89.322914Q539.1844 89.21354 539.77814 89.21354Q540.46564 89.21354 540.98126 89.33854Q541.4969 89.447914 541.8719 89.71354Q542.23126 89.979164 542.41876 90.416664Q542.6219 90.83854 542.6219 91.479164L542.6219 95.916664ZM541.52814 94.30729L541.52814 92.479164Q541.02814 92.510414 540.34064 92.572914Q539.65314 92.635414 539.2625 92.74479Q538.77814 92.86979 538.48126 93.166664Q538.2 93.447914 538.2 93.947914Q538.2 94.510414 538.52814 94.791664Q538.8719 95.072914 539.575 95.072914Q540.15314 95.072914 540.6375 94.854164Q541.1219 94.61979 541.52814 94.30729ZM548.6219 90.572914L548.5594 90.572914Q548.3094 90.510414 548.075 90.49479Q547.85626 90.46354 547.52814 90.46354Q547.02814 90.46354 546.54376 90.697914Q546.075 90.916664 545.6375 91.27604L545.6375 95.916664L544.52814 95.916664L544.52814 89.36979L545.6375 89.36979L545.6375 90.33854Q546.29376 89.80729 546.79376 89.58854Q547.29376 89.36979 547.8094 89.36979Q548.10626 89.36979 548.23126 89.385414Q548.35626 89.40104 548.6219 89.447914L548.6219 90.572914ZM553.6219 90.572914L553.5594 90.572914Q553.3094 90.510414 553.075 90.49479Q552.85626 90.46354 552.52814 90.46354Q552.02814 90.46354 551.54376 90.697914Q551.075 90.916664 550.6375 91.27604L550.6375 95.916664L549.52814 95.916664L549.52814 89.36979L550.6375 89.36979L550.6375 90.33854Q551.29376 89.80729 551.79376 89.58854Q552.29376 89.36979 552.8094 89.36979Q553.10626 89.36979 553.23126 89.385414Q553.35626 89.40104 553.6219 89.447914L553.6219 90.572914ZM555.71564 88.27604L554.48126 88.27604L554.48126 87.135414L555.71564 87.135414L555.71564 88.27604ZM555.65314 95.916664L554.54376 95.916664L554.54376 89.36979L555.65314 89.36979L555.65314 95.916664ZM563.2 89.36979L560.54376 95.916664L559.4344 95.916664L556.8094 89.36979L557.9969 89.36979L560.02814 94.572914L562.04376 89.36979L563.2 89.36979ZM570.0125 92.760414L565.1844 92.760414Q565.1844 93.354164 565.3719 93.80729Q565.5594 94.260414 565.8719 94.541664Q566.16876 94.822914 566.59064 94.96354Q567.0125 95.104164 567.5125 95.104164Q568.1844 95.104164 568.85626 94.83854Q569.54376 94.572914 569.825 94.322914L569.8875 94.322914L569.8875 95.510414Q569.325 95.74479 568.7469 95.916664Q568.16876 96.072914 567.52814 96.072914Q565.90314 96.072914 564.98126 95.197914Q564.075 94.30729 564.075 92.68229Q564.075 91.072914 564.95 90.135414Q565.825 89.18229 567.2469 89.18229Q568.575 89.18229 569.29376 89.96354Q570.0125 90.729164 570.0125 92.166664L570.0125 92.760414ZM568.9344 91.916664Q568.9344 91.041664 568.4969 90.572914Q568.075 90.104164 567.2 90.104164Q566.3094 90.104164 565.77814 90.61979Q565.2625 91.135414 565.1844 91.916664L568.9344 91.916664ZM576.84064 95.916664L575.7469 95.916664L575.7469 95.229164Q575.2625 95.635414 574.7469 95.86979Q574.23126 96.104164 573.6375 96.104164Q572.46564 96.104164 571.77814 95.197914Q571.09064 94.291664 571.09064 92.697914Q571.09064 91.854164 571.325 91.21354Q571.5594 90.55729 571.96564 90.104164Q572.35626 89.65104 572.8875 89.416664Q573.41876 89.18229 573.9969 89.18229Q574.5125 89.18229 574.90314 89.291664Q575.3094 89.40104 575.7469 89.635414L575.7469 86.791664L576.84064 86.791664L576.84064 95.916664ZM575.7469 94.30729L575.7469 90.541664Q575.29376 90.354164 574.9344 90.27604Q574.59064 90.197914 574.1844 90.197914Q573.2469 90.197914 572.73126 90.83854Q572.21564 91.479164 572.21564 92.666664Q572.21564 93.83854 572.60626 94.447914Q573.0125 95.041664 573.90314 95.041664Q574.3719 95.041664 574.84064 94.83854Q575.325 94.635414 575.7469 94.30729Z" fill-rule="nonzero"/><path fill="#757575" d="M31.425 34.065624Q31.425 36.76875 29.846874 38.33125Q28.26875 39.89375 25.409374 39.89375Q22.565624 39.89375 20.9875 38.33125Q19.409374 36.76875 19.409374 34.065624Q19.409374 31.346874 20.9875 29.8Q22.58125 28.2375 25.409374 28.2375Q28.284374 28.2375 29.846874 29.8Q31.425 31.3625 31.425 34.065624ZM27.096874 36.7375Q27.440624 36.315624 27.6125 35.721874Q27.784374 35.128124 27.784374 34.096874Q27.784374 33.128124 27.596874 32.471874Q27.425 31.815624 27.1125 31.425Q26.8 31.01875 26.3625 30.8625Q25.925 30.690624 25.409374 30.690624Q24.909374 30.690624 24.503124 30.83125Q24.1125 30.971874 23.753124 31.378124Q23.440624 31.753124 23.2375 32.425Q23.05 33.08125 23.05 34.096874Q23.05 34.9875 23.20625 35.64375Q23.378124 36.3 23.70625 36.70625Q24.01875 37.08125 24.45625 37.26875Q24.89375 37.440624 25.440624 37.440624Q25.925 37.440624 26.3625 37.284374Q26.8 37.1125 27.096874 36.7375ZM45.221874 39.55L41.690624 39.55L41.690624 34.1125Q41.690624 33.440624 41.6125 32.784374Q41.55 32.128124 41.39375 31.815624Q41.190624 31.45625 40.815624 31.3Q40.440624 31.128124 39.76875 31.128124Q39.284374 31.128124 38.784374 31.284374Q38.3 31.440624 37.721874 31.76875L37.721874 39.55L34.20625 39.55L34.20625 28.58125L37.721874 28.58125L37.721874 29.8Q38.659374 29.065624 39.51875 28.675Q40.39375 28.284374 41.440624 28.284374Q43.221874 28.284374 44.221874 29.315624Q45.221874 30.346874 45.221874 32.409374L45.221874 39.55ZM51.721874 39.55L48.20625 39.55L48.20625 24.346874L51.721874 24.346874L51.721874 39.55ZM66.425 34.065624Q66.425 36.76875 64.84688 38.33125Q63.26875 39.89375 60.409374 39.89375Q57.565624 39.89375 55.9875 38.33125Q54.409374 36.76875 54.409374 34.065624Q54.409374 31.346874 55.9875 29.8Q57.58125 28.2375 60.409374 28.2375Q63.284374 28.2375 64.84688 29.8Q66.425 31.3625 66.425 34.065624ZM62.096874 36.7375Q62.440624 36.315624 62.6125 35.721874Q62.784374 35.128124 62.784374 34.096874Q62.784374 33.128124 62.596874 32.471874Q62.425 31.815624 62.1125 31.425Q61.8 31.01875 61.3625 30.8625Q60.925 30.690624 60.409374 30.690624Q59.909374 30.690624 59.503124 30.83125Q59.1125 30.971874 58.753124 31.378124Q58.440624 31.753124 58.2375 32.425Q58.05 33.08125 58.05 34.096874Q58.05 34.9875 58.20625 35.64375Q58.378124 36.3 58.70625 36.70625Q59.01875 37.08125 59.45625 37.26875Q59.89375 37.440624 60.440624 37.440624Q60.925 37.440624 61.3625 37.284374Q61.8 37.1125 62.096874 36.7375ZM75.84688 36.690624L75.84688 34.409374Q75.14375 34.45625 74.3 34.565624Q73.47188 34.659374 73.05 34.8Q72.51875 34.971874 72.2375 35.284374Q71.97188 35.596874 71.97188 36.128124Q71.97188 36.45625 72.01875 36.675Q72.08125 36.89375 72.31563 37.08125Q72.53438 37.284374 72.84688 37.378124Q73.15938 37.471874 73.83125 37.471874Q74.3625 37.471874 74.89375 37.253124Q75.44063 37.034374 75.84688 36.690624ZM75.84688 38.39375Q75.56563 38.596874 75.14375 38.909374Q74.72188 39.20625 74.3625 39.378124Q73.84688 39.6125 73.28438 39.721874Q72.72188 39.846874 72.06563 39.846874Q70.50313 39.846874 69.44063 38.878124Q68.39375 37.909374 68.39375 36.409374Q68.39375 35.20625 68.925 34.440624Q69.47188 33.675 70.45625 33.2375Q71.425 32.8 72.8625 32.6125Q74.31563 32.425 75.87813 32.346874L75.87813 32.284374Q75.87813 31.378124 75.12813 31.034374Q74.39375 30.675 72.94063 30.675Q72.06563 30.675 71.08125 30.9875Q70.09688 31.3 69.675 31.45625L69.34688 31.45625L69.34688 28.815624Q69.90938 28.675 71.15938 28.471874Q72.40938 28.26875 73.675 28.26875Q76.675 28.26875 78.00313 29.190624Q79.33125 30.1125 79.33125 32.08125L79.33125 39.55L75.84688 39.55L75.84688 38.39375ZM92.87813 39.55L89.3625 39.55L89.3625 38.409374Q88.45625 39.14375 87.65938 39.503124Q86.8625 39.846874 85.83125 39.846874Q83.83125 39.846874 82.62813 38.315624Q81.425 36.76875 81.425 34.14375Q81.425 32.753124 81.83125 31.675Q82.2375 30.596874 82.94063 29.815624Q83.6125 29.096874 84.55 28.690624Q85.50313 28.284374 86.45625 28.284374Q87.44063 28.284374 88.06563 28.503124Q88.69063 28.70625 89.3625 29.01875L89.3625 24.346874L92.87813 24.346874L92.87813 39.55ZM89.3625 36.51875L89.3625 31.14375Q88.9875 30.9875 88.58125 30.925Q88.175 30.846874 87.83125 30.846874Q86.44063 30.846874 85.7375 31.721874Q85.05 32.58125 85.05 34.1125Q85.05 35.721874 85.59688 36.45625Q86.15938 37.175 87.39375 37.175Q87.87813 37.175 88.40938 37.003124Q88.95625 36.815624 89.3625 36.51875ZM114.01875 34.721874L105.97188 34.721874Q106.05 36.003124 106.94063 36.690624Q107.84688 37.378124 109.6125 37.378124Q110.72188 37.378124 111.76875 36.971874Q112.81563 36.565624 113.40938 36.1125L113.8 36.1125L113.8 38.940624Q112.6125 39.409374 111.55 39.628124Q110.50313 39.846874 109.22188 39.846874Q105.925 39.846874 104.15938 38.3625Q102.40938 36.878124 102.40938 34.128124Q102.40938 31.409374 104.06563 29.83125Q105.7375 28.2375 108.64375 28.2375Q111.31563 28.2375 112.65938 29.596874Q114.01875 30.940624 114.01875 33.4875L114.01875 34.721874ZM110.51875 32.659374Q110.4875 31.55 109.97188 31.003124Q109.45625 30.440624 108.3625 30.440624Q107.34688 30.440624 106.69063 30.971874Q106.03438 31.4875 105.95625 32.659374L110.51875 32.659374ZM127.25313 28.58125L123.03438 39.55L119.05 39.55L114.84688 28.58125L118.56563 28.58125L121.09688 36.128124L123.6125 28.58125L127.25313 28.58125ZM140.01875 34.721874L131.97188 34.721874Q132.05 36.003124 132.94063 36.690624Q133.84688 37.378124 135.6125 37.378124Q136.72188 37.378124 137.76875 36.971874Q138.81563 36.565624 139.40938 36.1125L139.8 36.1125L139.8 38.940624Q138.6125 39.409374 137.55 39.628124Q136.50313 39.846874 135.22188 39.846874Q131.925 39.846874 130.15938 38.3625Q128.40938 36.878124 128.40938 34.128124Q128.40938 31.409374 130.06563 29.83125Q131.7375 28.2375 134.64375 28.2375Q137.31563 28.2375 138.65938 29.596874Q140.01875 30.940624 140.01875 33.4875L140.01875 34.721874ZM136.51875 32.659374Q136.4875 31.55 135.97188 31.003124Q135.45625 30.440624 134.3625 30.440624Q133.34688 30.440624 132.69063 30.971874Q132.03438 31.4875 131.95625 32.659374L136.51875 32.659374ZM153.22188 39.55L149.69063 39.55L149.69063 34.1125Q149.69063 33.440624 149.6125 32.784374Q149.55 32.128124 149.39375 31.815624Q149.19063 31.45625 148.81563 31.3Q148.44063 31.128124 147.76875 31.128124Q147.28438 31.128124 146.78438 31.284374Q146.3 31.440624 145.72188 31.76875L145.72188 39.55L142.20625 39.55L142.20625 28.58125L145.72188 28.58125L145.72188 29.8Q146.65938 29.065624 147.51875 28.675Q148.39375 28.284374 149.44063 28.284374Q151.22188 28.284374 152.22188 29.315624Q153.22188 30.346874 153.22188 32.409374L153.22188 39.55ZM163.22188 39.45625Q162.65938 39.596874 162.01875 39.675Q161.39375 39.76875 160.47188 39.76875Q158.425 39.76875 157.40938 38.940624Q156.40938 38.096874 156.40938 36.096874L156.40938 30.971874L154.97188 30.971874L154.97188 28.58125L156.40938 28.58125L156.40938 25.440624L159.925 25.440624L159.925 28.58125L163.22188 28.58125L163.22188 30.971874L159.925 30.971874L159.925 34.846874Q159.925 35.425 159.94063 35.8625Q159.95625 36.284374 160.09688 36.628124Q160.2375 36.971874 160.58125 37.175Q160.925 37.378124 161.59688 37.378124Q161.8625 37.378124 162.3 37.26875Q162.75313 37.14375 162.925 37.034374L163.22188 37.034374L163.22188 39.45625Z" fill-rule="nonzero"/></svg>